<svg width="420" height="140" viewBox="0 0 420 140" xmlns="http://www.w3.org/2000/svg">
    <defs>
        <clipPath id="corners">
            <rect x="15" y="15" width="110" height="110" rx="12"/>
        </clipPath>
    </defs>
    
    <rect width="420" height="140" rx="16" fill="#1C1C1E" stroke="#38383A" stroke-width="1"/>
    
    <rect x="15" y="15" width="110" height="110" rx="12" fill="#30363D"/>
    
    <text x="145" y="35" font-family="-apple-system, BlinkMacSystemFont, sans-serif" font-size="10" fill="#EBEBF5" opacity="0.6" font-weight="600" letter-spacing="0.5">MADHAV'S PLAYLIST</text>
    
    <text x="145" y="60" font-family="-apple-system, BlinkMacSystemFont, sans-serif" font-size="16" fill="#FFFFFF" font-weight="bold">Loading Track...</text>
    <text x="145" y="80" font-family="-apple-system, BlinkMacSystemFont, sans-serif" font-size="13" fill="#EBEBF5" opacity="0.6">YouTube Music</text>
    
    <g transform="translate(145, 105)">
        <rect x="0" y="0" width="255" height="4" rx="2" fill="#424245"/>
        <rect x="0" y="0" width="85" height="4" rx="2" fill="#FFFFFF"/>
        <circle cx="85" cy="2" r="4" fill="#FFFFFF"/>
        
        <path d="M120 18 L132 25 L120 32 Z" fill="#FFFFFF"/>
        <path d="M92 20 L92 30 M92 25 L82 20 L82 30 Z" fill="#FFFFFF" opacity="0.8"/>
        <path d="M152 20 L152 30 M152 25 L162 20 L162 30 Z" fill="#FFFFFF" opacity="0.8"/>
    </g>
</svg>